<?xml version="1.0" standalone="no"?><!-- Generator: Gravit.io --><svg xmlns="http://www.w3.org/2000/svg" xmlns:xlink="http://www.w3.org/1999/xlink" style="isolation:isolate" viewBox="0 0 793.333 1122.667" width="793.333" height="1122.667"><defs><clipPath id="_clipPath_loTDgXdLb0URPExOrrU68KGV31LBpiW4"><rect width="793.333" height="1122.667"/></clipPath></defs><g clip-path="url(#_clipPath_loTDgXdLb0URPExOrrU68KGV31LBpiW4)"><path d=" M 299.479 294.464 C 299.479 294.464 242.557 294.464 234.557 351.38 L 133.688 800.161 L 220.443 871.12 C 220.443 871.12 491.802 872.276 543.755 872.276 C 595.703 872.276 637.792 846.255 647.198 786.51 L 698.318 367.734 L 650.411 240.021 L 299.479 294.464 Z " fill="rgb(173,29,41)"/><path d=" M 299.479 294.464 C 299.479 294.464 242.557 294.464 234.557 351.38 L 133.687 800.161 L 220.443 871.12 C 220.443 871.12 491.802 872.276 543.755 872.276 C 595.703 872.276 637.792 846.255 647.198 786.51 L 698.318 367.734 L 650.411 240.021 L 299.479 294.464 Z " fill="none" vector-effect="non-scaling-stroke" stroke-width="8.845" stroke="rgb(210,32,39)" stroke-opacity="100" stroke-linejoin="miter" stroke-linecap="butt" stroke-miterlimit="4"/><path d=" M 252.047 215.411 C 252.047 215.411 195.125 215.411 187.125 272.328 L 119.448 753.891 C 119.448 753.891 111.448 810.807 168.365 810.807 L 522.135 810.807 C 522.135 810.807 579.052 810.807 587.052 753.891 L 654.734 272.328 C 654.734 272.328 662.734 215.411 605.813 215.411 L 252.047 215.411 Z " fill="rgb(255,255,255)"/><clipPath id="_clipPath_Ehlu03z9s70QitNo46qXFrtx4UE0yVfV"><path d=" M 118.667 656 L 606.667 656 L 606.667 812 L 118.667 812 L 118.667 656 Z " fill="rgb(255,255,255)"/></clipPath><g clip-path="url(#_clipPath_Ehlu03z9s70QitNo46qXFrtx4UE0yVfV)"><g id="Group"><clipPath id="_clipPath_CPHODIsKRbIcVRgZIp0lxv3YwdYB7QZB"><path d=" M 252.047 215.411 C 252.047 215.411 195.125 215.411 187.125 272.328 L 119.448 753.891 C 119.448 753.891 111.448 810.807 168.365 810.807 L 522.135 810.807 C 522.135 810.807 579.052 810.807 587.052 753.891 L 654.734 272.328 C 654.734 272.328 662.734 215.411 605.813 215.411 L 252.047 215.411 Z " fill="rgb(255,255,255)"/></clipPath><g clip-path="url(#_clipPath_CPHODIsKRbIcVRgZIp0lxv3YwdYB7QZB)"><g id="Group"><path d=" M 566.276 812.385 L 606.089 700.953 L 594.922 700.953 L 594.406 702.896 L 589.474 702.896 L 583.745 724.307 L 581.271 724.307 L 579.38 731.38 L 575.932 731.38 L 580.87 712.922 L 579.719 712.922 L 579.911 712.214 L 578.906 712.214 L 579.094 711.5 L 578.01 711.5 L 578.141 711 L 573.167 710.214 L 564.042 710.214 L 558.651 711 L 558.516 711.5 L 557.427 711.5 L 557.234 712.214 L 556.234 712.214 L 556.042 712.922 L 554.891 712.922 L 553.734 717.255 L 551.089 717.255 L 551.427 715.995 L 545.396 715.995 L 545.063 717.255 L 542.104 717.255 L 535.469 742.078 L 533.302 742.078 L 536.865 728.755 L 533.646 728.755 L 534.292 726.349 L 529.146 723.375 L 529.318 722.74 L 523.411 722.74 L 523.24 723.375 L 516.51 726.349 L 515.865 728.755 L 512.651 728.755 L 512.276 730.151 L 501.755 730.151 L 507.271 709.521 L 510.557 697.229 L 511.505 693.693 L 510.094 693.693 L 510.458 692.328 L 510.797 691.068 L 504.26 691.068 L 504.969 688.406 L 505.411 686.76 L 498.323 686.76 L 497.172 691.068 L 496.833 692.328 L 491.427 692.328 L 491.063 693.693 L 490.12 697.229 L 488.776 697.229 L 479.729 731.057 L 475.922 731.057 L 485.24 696.219 L 486.302 692.245 L 483.609 692.245 L 484.464 689.047 L 474.984 689.047 L 474.13 692.245 L 471.438 692.245 L 470.375 696.219 L 466.948 696.219 L 458.401 728.182 L 456.172 725.557 L 452.807 725.557 L 452.01 728.542 L 450.516 729.682 L 459.135 697.453 L 458.083 697.453 L 459.318 692.828 L 458.474 692.828 L 461.755 680.557 L 461.297 680.557 L 461.828 678.563 L 460.016 678.563 L 459.927 678.885 L 457.052 678.885 L 457.333 677.833 L 457.016 677.833 L 457.177 677.229 L 452.604 672.932 L 453.182 670.771 L 451.047 670.771 L 450.469 672.932 L 443.604 677.229 L 443.443 677.833 L 443.125 677.833 L 442.844 678.885 L 439.964 678.885 L 440.052 678.563 L 438.24 678.563 L 437.703 680.557 L 437.245 680.557 L 433.964 692.828 L 433.115 692.828 L 431.88 697.453 L 430.828 697.453 L 422.411 728.922 L 415.781 728.922 L 426.51 688.792 L 404.115 688.792 L 398.536 709.656 L 393.49 709.656 L 391.839 715.828 L 390.052 715.828 L 405.24 659.036 L 402.969 659.036 L 403.589 656.729 L 379.969 656.729 L 379.354 659.036 L 377.974 659.036 L 369.099 692.016 L 330.99 691.703 L 335.26 675.724 L 335.521 674.766 L 333.656 674.766 L 334.016 673.438 L 330.844 673.438 L 330.969 672.974 L 329.714 672.974 L 329.589 673.438 L 326.219 673.438 L 326.401 672.75 L 322.25 672.75 L 322.068 673.438 L 319.792 673.438 L 319.958 672.828 L 318.938 672.828 L 318.771 673.438 L 315.917 673.438 L 315.563 674.766 L 311.594 674.766 L 311.339 675.724 L 306.245 675.724 L 296.943 710.495 L 293.234 710.495 L 298.13 692.193 L 297.521 692.193 L 299.563 684.563 L 298.833 684.563 L 299.219 683.125 L 297.5 683.125 L 298.563 679.146 L 296.609 679.146 L 293.885 675.677 L 287.016 675.594 L 282.005 679.146 L 279.766 679.146 L 278.703 683.125 L 276.984 683.125 L 276.599 684.563 L 275.875 684.563 L 274.38 690.156 L 267.5 690.156 L 267.323 690.813 L 268.625 690.813 L 268.354 691.839 L 267.932 691.839 L 262.026 713.917 L 260.302 713.917 L 262.792 704.625 L 258.906 704.625 L 259.234 703.396 L 258.448 703.396 L 258.12 704.625 L 257.646 704.625 L 257.953 703.484 L 257.323 703.484 L 257.563 702.589 L 257.245 702.589 L 257.542 701.469 L 256.443 701.469 L 256.745 700.344 L 252.646 700.344 L 252.75 699.943 L 251.385 699.943 L 251.281 700.344 L 250.901 700.344 L 253.75 689.688 L 254.568 689.688 L 254.964 688.219 L 248.75 688.219 L 249.25 686.349 L 240.219 686.349 L 239.719 688.219 L 233.505 688.219 L 233.115 689.688 L 233.932 689.688 L 226.427 717.74 L 224.792 717.74 L 237.682 669.531 L 234.995 669.531 L 235.693 666.922 L 234.969 666.922 L 228.021 666.302 L 228.406 664.865 L 210.464 663.427 L 208.833 669.531 L 207.479 669.531 L 198.443 703.328 L 192.63 703.328 L 192.281 704.625 L 190.323 704.625 L 183.99 728.302 L 180.714 728.302 L 179.844 731.563 L 177.792 731.563 L 179.615 724.76 L 174.729 724.76 L 177.427 714.667 L 175.906 714.667 L 176.12 713.875 L 174.474 713.875 L 174.917 712.224 L 168 712.224 L 167.563 713.875 L 166.75 713.875 L 166.536 714.667 L 165.531 714.667 L 164.49 718.557 L 160.536 718.557 L 161.109 716.417 L 159.333 716.417 L 166.255 690.526 L 167.703 690.526 L 169.333 684.432 L 156.427 684.432 L 156.677 683.49 L 146.542 683.49 L 146.292 684.432 L 138.01 684.432 L 136.38 690.526 L 137.828 690.526 L 130.115 719.37 L 123.484 719.37 L 120.646 729.995 L 118.458 729.995 L 123.813 709.969 L 118.083 709.969 L 118.885 706.964 L 107.208 706.964 L 79.016 812.385 L 566.276 812.385 Z " fill="rgb(210,32,39)"/></g></g></g></g><path d=" M 252.047 215.411 C 252.047 215.411 195.125 215.411 187.125 272.328 L 119.448 753.891 C 119.448 753.891 111.448 810.807 168.365 810.807 L 522.135 810.807 C 522.135 810.807 579.052 810.807 587.052 753.891 L 654.734 272.328 C 654.734 272.328 662.734 215.411 605.812 215.411 L 252.047 215.411 Z " fill="none" vector-effect="non-scaling-stroke" stroke-width="8.845" stroke="rgb(210,32,39)" stroke-opacity="100" stroke-linejoin="miter" stroke-linecap="butt" stroke-miterlimit="4"/><path d=" M 520.328 285.99 C 522.818 287.276 528.172 288.688 533.865 288.688 C 547.703 288.688 555 282.266 556.047 274.818 C 556.896 268.781 553.62 264.609 545.516 261.781 C 539.828 259.729 537.427 258.828 537.734 256.646 C 538.005 254.719 540.292 253.432 544.156 253.432 C 548.932 253.432 552.276 254.656 554.198 255.49 L 558.167 246.245 C 555.182 244.958 551.313 243.995 545.625 243.995 C 533.682 243.995 525.823 249.901 524.75 257.542 C 523.849 263.964 528.547 268.01 536.198 270.578 C 541.302 272.25 543.24 273.469 542.938 275.589 C 542.635 277.771 540.339 279.12 535.979 279.12 C 531.271 279.12 526.755 277.771 524.063 276.422 L 520.328 285.99 Z " fill="rgb(210,32,39)"/><path d=" M 599.109 257.161 C 599.703 252.922 598.563 249.839 596.031 247.719 C 593.021 245.281 588.281 244.38 581.505 244.38 C 575.589 244.38 570.469 244.766 567.042 245.281 L 561.042 287.979 L 572.813 287.979 L 575.094 271.734 L 577.005 271.734 C 580.688 271.734 582.177 272.828 582.63 278.026 C 583.198 283.359 583.844 286.698 584.323 287.979 L 596.49 287.979 C 595.87 286.313 595.307 280.021 594.547 275.589 C 593.953 271.865 592.76 269.104 589.974 267.88 L 590.01 267.625 C 593.667 266.406 598.354 262.552 599.109 257.161 Z  M 587.146 258.057 C 586.693 261.271 583.823 263.453 579.354 263.453 L 576.26 263.453 L 577.703 253.177 C 578.313 253.047 579.516 252.922 581.75 252.922 C 585.688 252.984 587.604 254.786 587.146 258.057 Z " fill="rgb(210,32,39)"/><path d=" M 545.708 335.026 L 554.474 335.026 L 560.63 291.75 L 546.297 291.75 C 546.297 291.75 538.339 313.813 536.38 319.078 L 533.104 291.75 L 519.521 291.75 L 513.438 335.026 L 522.87 335.026 L 527.573 302.089 C 527.703 307.995 530.875 334.13 530.875 334.13 L 538.333 334.13 L 550.37 302.089 C 549.359 308.828 545.708 335.026 545.708 335.026 Z " fill="rgb(210,32,39)"/><path d=" M 589.255 324.818 C 587.563 325.526 584.682 326.099 582.172 326.099 C 575.094 326.099 571.615 321.219 572.724 313.323 C 573.969 304.464 579.656 300.547 585.594 300.547 C 588.672 300.547 590.906 301.318 592.51 302.089 L 595.786 292.969 C 594.323 292.005 590.865 291.042 586.411 291.042 C 574.943 291.042 563.922 298.813 561.771 314.094 C 560.156 325.589 565.068 335.734 579.448 335.734 C 584.073 335.734 587.807 334.708 589.401 333.938 L 589.255 324.818 Z " fill="rgb(210,32,39)"/><path d=" M 587.484 409.563 C 578.422 399.203 551.755 367.042 543.87 364.891 C 541.01 364.109 535.563 365.927 533.208 366.484 C 528.917 366.75 524.625 367.016 520.339 367.281 C 513.406 369.068 457.12 385.818 444.151 389.62 C 435.995 392.01 430.865 387.219 428.766 383.24 C 426.766 379.135 432.031 368.979 433.766 365.688 C 439.005 355.724 447.865 348.62 456.49 342.552 C 462.099 338.599 467.823 336.536 471.646 330.589 C 479.552 318.281 475.62 307.141 470.917 297.88 C 463.474 283.203 431.458 261.026 411.844 258.786 C 381.604 284.401 361.063 285.01 359.891 301.068 C 358.719 317.13 368.38 317.068 373.932 326.599 C 380.24 337.432 380.995 354.969 379.745 372.87 C 379.307 379.12 379.271 387.141 378.599 399.964 C 377.927 412.786 349.396 412.536 336.724 416.745 C 322.693 421.401 307.719 423.807 292.922 428.708 C 288.219 430.271 279.708 434.411 273.047 432.698 C 265.344 430.719 262.214 424.557 256.542 420.734 C 247.74 414.792 240.328 410.292 230.578 403.979 C 209.964 390.271 203.948 430.417 205.146 433.495 C 203.885 450.953 215.891 455.047 225 462.214 C 240.104 474.104 254.938 487.188 269.865 499.708 C 272.781 502.151 276.922 509.313 277.964 513.271 C 279.292 518.313 277.63 523.234 280.031 526.833 C 282.005 530.714 292.396 530.703 298.708 529.229 C 314.661 525.49 342.813 518.62 354.656 526.833 C 351.891 577.531 339.161 655.589 308.995 676.078 C 296.568 684.521 314.62 713.766 315.255 729.016 C 315.823 742.672 311.839 738.974 316.396 746.089 C 321.693 754.37 327.208 754.057 336.313 737.552 C 353.391 704.536 367.849 693.266 369.099 692.016 C 365.458 688.031 377.865 628.839 381.849 599.807 C 387.089 567.792 385.573 538.667 398.932 518.854 C 413.813 517.177 434.359 516.734 449.323 520.453 C 453.88 521.583 467.948 524.641 474.844 524.599 C 482.281 524.266 485.802 517.307 486.286 509.286 C 486.771 501.26 496.094 494.417 502.057 488.542 C 517.755 473.078 533.859 454.557 554.823 445.464 C 567.49 439.969 591.193 439.38 597.229 431.901 C 603.266 424.422 591.646 414.323 587.484 409.563 Z  M 368.026 475.776 C 365.969 484.755 364.073 504.104 347.339 502.104 C 340.38 501.828 335.385 503.536 329.078 504.495 C 319.469 506.385 315.849 490.474 311.099 481.359 C 307.01 473.51 296.766 461.755 293.063 459.026 C 289.365 456.297 300.594 447.057 306.88 444.667 C 318.036 440.427 331.563 437.917 343.036 434.297 C 358.948 430.115 365.359 433.589 369.255 436.688 C 373.146 439.792 370.078 466.802 368.026 475.776 Z  M 511.464 429.51 C 505.818 436.755 464.771 473.453 457.5 478.969 C 452.875 484.021 436.193 496.104 432.797 498.115 C 429.396 500.125 411.146 501.12 407.109 498.911 C 403.073 496.708 401.911 486.854 403.927 479.766 C 407.62 466.802 407.891 450.63 412.161 437.484 C 413.797 432.443 420.083 416.917 428.156 413.552 C 436.229 410.193 476.161 400.828 486.505 398.396 C 496.849 395.964 511.078 398.563 513.359 402.385 C 515.646 406.208 518.995 420.297 511.464 429.51 Z " fill="rgb(210,32,39)"/><clipPath id="_clipPath_Rj1OOlnY6l6sz9gfnDBYLubeI1Sxut9S"><path d=" M 285.333 258.667 L 600 258.667 L 600 752 L 285.333 752 L 285.333 258.667 Z " fill="rgb(255,255,255)"/></clipPath><g clip-path="url(#_clipPath_Rj1OOlnY6l6sz9gfnDBYLubeI1Sxut9S)"><g id="Group"><clipPath id="_clipPath_Ojf5UhmmHO3i19SuQUZt9TyxHWzu70Lr"><path d=" M 587.484 409.563 C 578.422 399.203 551.755 367.042 543.87 364.891 C 541.01 364.109 535.563 365.927 533.208 366.484 C 528.917 366.75 524.625 367.016 520.339 367.281 C 513.406 369.068 457.12 385.818 444.151 389.62 C 435.995 392.01 430.865 387.219 428.766 383.24 C 426.766 379.135 432.031 368.979 433.766 365.688 C 439.005 355.724 447.865 348.62 456.49 342.552 C 462.099 338.599 467.823 336.536 471.646 330.589 C 479.552 318.281 475.62 307.141 470.917 297.88 C 463.474 283.203 431.458 261.026 411.844 258.786 C 381.604 284.401 361.063 285.01 359.891 301.068 C 358.719 317.13 368.38 317.068 373.932 326.599 C 380.24 337.432 380.995 354.969 379.745 372.87 C 379.307 379.12 379.271 387.141 378.599 399.964 C 377.927 412.786 349.396 412.536 336.724 416.745 C 322.693 421.401 307.719 423.807 292.922 428.708 C 288.219 430.271 279.708 434.411 273.047 432.698 C 265.344 430.719 262.214 424.557 256.542 420.734 C 247.74 414.792 240.328 410.292 230.578 403.979 C 209.964 390.271 203.948 430.417 205.146 433.495 C 203.885 450.953 215.891 455.047 225 462.214 C 240.104 474.104 254.938 487.188 269.865 499.708 C 272.781 502.151 276.922 509.313 277.964 513.271 C 279.292 518.313 277.63 523.234 280.031 526.833 C 282.005 530.714 292.396 530.703 298.708 529.229 C 314.661 525.49 342.813 518.62 354.656 526.833 C 351.891 577.531 339.161 655.589 308.995 676.078 C 296.568 684.521 314.62 713.766 315.255 729.016 C 315.823 742.672 311.839 738.974 316.396 746.089 C 321.693 754.37 327.208 754.057 336.313 737.552 C 353.391 704.536 367.849 693.266 369.099 692.016 C 365.458 688.031 377.865 628.839 381.849 599.807 C 387.089 567.792 385.573 538.667 398.932 518.854 C 413.813 517.177 434.359 516.734 449.323 520.453 C 453.88 521.583 467.948 524.641 474.844 524.599 C 482.281 524.266 485.802 517.307 486.286 509.286 C 486.771 501.26 496.094 494.417 502.057 488.542 C 517.755 473.078 533.859 454.557 554.823 445.464 C 567.49 439.969 591.193 439.38 597.229 431.901 C 603.266 424.422 591.646 414.323 587.484 409.563 Z  M 368.026 475.776 C 365.969 484.755 364.073 504.104 347.339 502.104 C 340.38 501.828 335.385 503.536 329.078 504.495 C 319.469 506.385 315.849 490.474 311.099 481.359 C 307.01 473.51 296.766 461.755 293.063 459.026 C 289.365 456.297 300.594 447.057 306.88 444.667 C 318.036 440.427 331.563 437.917 343.036 434.297 C 358.948 430.115 365.359 433.589 369.255 436.688 C 373.146 439.792 370.078 466.802 368.026 475.776 Z  M 511.464 429.51 C 505.818 436.755 464.771 473.453 457.5 478.969 C 452.875 484.021 436.193 496.104 432.797 498.115 C 429.396 500.125 411.146 501.12 407.109 498.911 C 403.073 496.708 401.911 486.854 403.927 479.766 C 407.62 466.802 407.891 450.63 412.161 437.484 C 413.797 432.443 420.083 416.917 428.156 413.552 C 436.229 410.193 476.161 400.828 486.505 398.396 C 496.849 395.964 511.078 398.563 513.359 402.385 C 515.646 406.208 518.995 420.297 511.464 429.51 Z " fill="rgb(255,255,255)"/></clipPath><g clip-path="url(#_clipPath_Ojf5UhmmHO3i19SuQUZt9TyxHWzu70Lr)"><g id="Group"><path d=" M 421.792 181.078 L 413.75 236.969 C 413.75 236.969 521.406 284.172 476.333 311.802 C 467.229 316.354 451.333 295.823 442.979 290.979 C 423.484 279.672 415.177 283.172 414.042 291.448 C 412.901 299.724 415.875 305.005 412.583 326.031 C 409.547 345.438 398.297 370.313 396.432 382.422 C 394.505 394.938 419.693 396.714 441.042 390.349 C 464.724 383.292 482.672 377.49 487.26 376.917 C 482.594 400.026 393.688 393.536 390.474 420.594 C 390.167 422.734 390.432 436.625 387.089 458.083 C 385.906 465.682 382.042 474.974 380.63 484 C 379.359 497.615 412.698 500.313 416.344 500.089 C 425.021 499.547 431.734 498.698 433.188 497.813 C 412.359 510.786 386.276 501.474 381.849 513.109 C 371.604 540.042 372.87 558.26 369.453 577.042 C 364.161 606.146 357.943 643.635 341.438 692.302 C 313.547 771.703 312.031 744.766 306.719 727.307 C 298.75 701.125 277.12 719.339 290.781 748.932 C 272.568 749.505 323.292 881.953 323.292 881.953 L 790.896 881.953 L 889.396 181.078 L 421.792 181.078 Z " fill="rgb(163,27,33)"/></g></g></g></g></g></svg>